<svg xmlns="http://www.w3.org/2000/svg" xmlns:xlink="http://www.w3.org/1999/xlink" width="623" height="80" viewBox="0 0 623 80">
  <defs>
    <clipPath id="clip-path">
      <rect id="Rectangle_23295" data-name="Rectangle 23295" width="623" height="80" transform="translate(0 0)" fill="none"/>
    </clipPath>
  </defs>
  <g id="banner" transform="translate(-649 -322)">
    <g id="Group_17528" data-name="Group 17528" transform="translate(625.099 275.659)">
      <g id="Group_17527" data-name="Group 17527" transform="translate(23.901 46.341)" clip-path="url(#clip-path)">
        <path id="Path_28919" data-name="Path 28919" d="M219.6,0V60.506h88.027L276.817,30.253,307.627,0Z" transform="translate(316.337 0.671)" fill="#00a559"/>
        <path id="Path_28922" data-name="Path 28922" d="M219.6,0V9.076h35.211Z" transform="translate(316.337 0.671)" fill="#007740"/>
        <path id="Path_28924" data-name="Path 28924" d="M0,0,30.809,30.253,0,60.506H88.027V0Z" transform="translate(-1.025 0.671)" fill="#00a559"/>
        <path id="Path_28927" data-name="Path 28927" d="M56.811,0,21.6,9.076H56.811Z" transform="translate(30.191 0.671)" fill="#007740"/>
        <rect id="Rectangle_23275" data-name="Rectangle 23275" width="519.357" height="60.506" transform="translate(51.791 9.746)" fill="#03cc6f"/>
      </g>
    </g>
    <path id="Search_pathology_results" data-name="Search pathology results" d="M-221.9-8.59q0,4.254-2.109,6.539A7.82,7.82,0,0,1-230.057.234,7.82,7.82,0,0,1-236.1-2.051q-2.109-2.285-2.109-6.562t2.115-6.533a7.91,7.91,0,0,1,6.064-2.256,7.8,7.8,0,0,1,6.041,2.273Q-221.9-12.855-221.9-8.59Zm-12.5,0a7.157,7.157,0,0,0,1.09,4.324,3.813,3.813,0,0,0,3.258,1.453q4.348,0,4.348-5.777t-4.324-5.789a3.839,3.839,0,0,0-3.27,1.459A7.127,7.127,0,0,0-234.4-8.59ZM-214.775,0h-3.574V-17.133h9.82v2.977h-6.246v4.418h5.813v2.965h-5.812Zm26.32,0L-189.7-4.078h-6.246L-197.186,0H-201.1l6.047-17.2h4.441l6.07,17.2Zm-2.109-7.125q-1.723-5.543-1.939-6.27t-.311-1.148q-.387,1.5-2.215,7.418Zm15.457-7.23a3.7,3.7,0,0,0-3.176,1.541,7.169,7.169,0,0,0-1.125,4.295q0,5.73,4.3,5.73a13.6,13.6,0,0,0,4.371-.9V-.645a12.139,12.139,0,0,1-4.711.879,7.185,7.185,0,0,1-5.719-2.268q-1.98-2.268-1.98-6.51a10.63,10.63,0,0,1,.973-4.682,7.03,7.03,0,0,1,2.795-3.082,8.268,8.268,0,0,1,4.271-1.072,11.529,11.529,0,0,1,5.016,1.207l-1.172,2.953a19.4,19.4,0,0,0-1.934-.8A5.768,5.768,0,0,0-175.107-14.355ZM-153.053,0h-3.621V-7.395h-6.785V0h-3.633V-17.133h3.633v6.715h6.785v-6.715h3.621Zm4.324,0V-17.133h3.633V0Zm17.813,0h-9.867V-17.133h9.867v2.977h-6.234v3.762h5.8v2.977h-5.8V-3h6.234Zm13.348-17.133h3.668L-119.725,0h-3.961L-129.5-17.133h3.668l3.223,10.2q.27.9.557,2.1t.357,1.67a30.017,30.017,0,0,1,.879-3.773ZM-101.877,0h-9.867V-17.133h9.867v2.977h-6.234v3.762h5.8v2.977h-5.8V-3h6.234Zm10.828,0-4.125-13.441h-.105q.223,4.1.223,5.473V0H-98.3V-17.133h4.945l4.055,13.1h.07l4.3-13.1h4.945V0h-3.387V-8.109q0-.574.018-1.324t.158-3.984H-83.3L-87.721,0Zm25.242,0h-9.867V-17.133h9.867v2.977h-6.234v3.762h5.8v2.977h-5.8V-3h6.234Zm18.773,0H-51.65L-59.1-12.961h-.105q.223,3.434.223,4.9V0h-3.246V-17.133h4.582L-50.209-4.3h.082q-.176-3.34-.176-4.723v-8.109h3.27Zm10.922,0h-3.633V-14.109H-44.4v-3.023h12.938v3.023h-4.652Zm17.156-9.07h1.2a3.981,3.981,0,0,0,2.508-.662,2.317,2.317,0,0,0,.832-1.928,2.376,2.376,0,0,0-.7-1.887,3.267,3.267,0,0,0-2.186-.609h-1.652Zm8.2-2.719a5.237,5.237,0,0,1-1.729,4.23A7.393,7.393,0,0,1-17.4-6.094h-1.559V0h-3.633V-17.133h5.473a7.279,7.279,0,0,1,4.74,1.342A4.892,4.892,0,0,1-10.752-11.789Zm6.867,2.262h1.172A4.483,4.483,0,0,0-.17-10.1a2.05,2.05,0,0,0,.82-1.8,1.875,1.875,0,0,0-.838-1.734,5.084,5.084,0,0,0-2.6-.516h-1.1Zm0,2.953V0H-7.518V-17.133h4.992a8.544,8.544,0,0,1,5.168,1.271A4.538,4.538,0,0,1,4.318-12a4.546,4.546,0,0,1-.832,2.689A5.505,5.505,0,0,1,1.131-7.465Q5-1.687,6.17,0H2.139l-4.09-6.574ZM23.877-8.59q0,4.254-2.109,6.539A7.82,7.82,0,0,1,15.721.234,7.82,7.82,0,0,1,9.674-2.051Q7.564-4.336,7.564-8.613T9.68-15.146A7.91,7.91,0,0,1,15.744-17.4a7.8,7.8,0,0,1,6.041,2.273Q23.877-12.855,23.877-8.59Zm-12.5,0a7.157,7.157,0,0,0,1.09,4.324,3.813,3.813,0,0,0,3.258,1.453q4.348,0,4.348-5.777t-4.324-5.789a3.839,3.839,0,0,0-3.27,1.459A7.127,7.127,0,0,0,11.373-8.59Zm30-8.543V-6.047a6.391,6.391,0,0,1-.85,3.328A5.529,5.529,0,0,1,38.068-.527a8.78,8.78,0,0,1-3.8.762,7.27,7.27,0,0,1-5.133-1.693,6.007,6.007,0,0,1-1.828-4.635V-17.133h3.621V-6.645a4.393,4.393,0,0,0,.8,2.906,3.313,3.313,0,0,0,2.637.926,3.239,3.239,0,0,0,2.584-.932,4.416,4.416,0,0,0,.8-2.924V-17.133Zm18.41,8.4a8.437,8.437,0,0,1-2.408,6.48Q54.967,0,50.42,0H45.568V-17.133h5.379a9.058,9.058,0,0,1,6.516,2.215A8.147,8.147,0,0,1,59.783-8.73Zm-3.773.094q0-5.52-4.875-5.52H49.2V-3H50.76Q56.01-3,56.01-8.637ZM63.334,0V-17.133h3.633V-3h6.949V0ZM82.225-10.078,85.8-17.133h3.914L84.029-6.668V0H80.42V-6.551L74.736-17.133h3.938ZM101.736-9.07h1.2a3.981,3.981,0,0,0,2.508-.662,2.317,2.317,0,0,0,.832-1.928,2.376,2.376,0,0,0-.7-1.887,3.267,3.267,0,0,0-2.186-.609h-1.652Zm8.2-2.719a5.237,5.237,0,0,1-1.729,4.23,7.393,7.393,0,0,1-4.916,1.465h-1.559V0H98.1V-17.133h5.473a7.279,7.279,0,0,1,4.74,1.342A4.892,4.892,0,0,1,109.939-11.789Zm6.867,2.262h1.172a4.483,4.483,0,0,0,2.543-.574,2.05,2.05,0,0,0,.82-1.8,1.875,1.875,0,0,0-.838-1.734,5.084,5.084,0,0,0-2.6-.516h-1.1Zm0,2.953V0h-3.633V-17.133h4.992a8.544,8.544,0,0,1,5.168,1.271A4.538,4.538,0,0,1,125.01-12a4.546,4.546,0,0,1-.832,2.689,5.505,5.505,0,0,1-2.355,1.846Q125.689-1.687,126.861,0H122.83l-4.09-6.574ZM138.885,0h-9.867V-17.133h9.867v2.977H132.65v3.762h5.8v2.977h-5.8V-3h6.234Zm13.688-4.758A4.429,4.429,0,0,1,150.9-1.1,7.254,7.254,0,0,1,146.256.234,10.912,10.912,0,0,1,141.4-.8V-4.172a19.993,19.993,0,0,0,2.936,1.09,8.686,8.686,0,0,0,2.2.316,3.124,3.124,0,0,0,1.834-.457,1.563,1.563,0,0,0,.639-1.359,1.5,1.5,0,0,0-.281-.9,3.147,3.147,0,0,0-.826-.756,21.249,21.249,0,0,0-2.221-1.16,10.526,10.526,0,0,1-2.355-1.418,5.323,5.323,0,0,1-1.254-1.582A4.515,4.515,0,0,1,141.6-12.5a4.428,4.428,0,0,1,1.541-3.574,6.4,6.4,0,0,1,4.26-1.3,10.059,10.059,0,0,1,2.549.316,17.52,17.52,0,0,1,2.537.891l-1.172,2.824a17.146,17.146,0,0,0-2.268-.785,7.3,7.3,0,0,0-1.764-.223,2.335,2.335,0,0,0-1.582.48,1.585,1.585,0,0,0-.551,1.254,1.552,1.552,0,0,0,.223.838,2.448,2.448,0,0,0,.709.691,21.921,21.921,0,0,0,2.3,1.2,9.163,9.163,0,0,1,3.293,2.3A4.494,4.494,0,0,1,152.572-4.758ZM165.545,0h-9.867V-17.133h9.867v2.977h-6.234v3.762h5.8v2.977h-5.8V-3h6.234Zm18.773,0H179.7l-7.453-12.961h-.105q.223,3.434.223,4.9V0h-3.246V-17.133H173.7L181.143-4.3h.082q-.176-3.34-.176-4.723v-8.109h3.27ZM195.24,0h-3.633V-14.109h-4.652v-3.023h12.938v3.023H195.24Zm20.133,0H211.74V-14.109h-4.652v-3.023h12.938v3.023h-4.652Zm22.84-8.59q0,4.254-2.109,6.539A7.82,7.82,0,0,1,230.057.234a7.82,7.82,0,0,1-6.047-2.285Q221.9-4.336,221.9-8.613t2.115-6.533A7.91,7.91,0,0,1,230.08-17.4a7.8,7.8,0,0,1,6.041,2.273Q238.213-12.855,238.213-8.59Zm-12.5,0a7.157,7.157,0,0,0,1.09,4.324,3.813,3.813,0,0,0,3.258,1.453q4.348,0,4.348-5.777t-4.324-5.789a3.839,3.839,0,0,0-3.27,1.459A7.127,7.127,0,0,0,225.709-8.59Z" transform="translate(960 371)" fill="#fff"/>
  </g>
</svg>
