<svg xmlns="http://www.w3.org/2000/svg" width="275.518" height="60" viewBox="0 0 275.518 60">
  <g id="Cadillac_Fairview_logo" transform="translate(-3356.543 -512.875)">
    <g id="Group_17672" data-name="Group 17672" transform="translate(3356.543 513.475)">
      <path id="Path_29022" data-name="Path 29022" d="M3609.453,560.795l-8.445,10.032a1.1,1.1,0,0,0,0,1.438l8.45,10.019a1.113,1.113,0,0,0,1.964-.724V561.517a1.116,1.116,0,0,0-1.968-.721" transform="translate(-3503.066 -541.99)" fill="#006197"/>
      <path id="Path_29023" data-name="Path 29023" d="M3538.069,514.395l-.005,0a2.525,2.525,0,0,0-2.82,2.643v53.615l.005,0a2.526,2.526,0,0,0,2.641,2.822h19.248a2.526,2.526,0,0,0,2.817-2.6V522.671c0-3.6.391-4.958,2.325-5.525.012,0,0,0,0,0,4.868-1.242,12.259,8.514,20.875,19.936a1.638,1.638,0,0,0,2.987-.563c.115-1.035,0-19.3,0-19.3v0a2.526,2.526,0,0,0-2.643-2.82h-.012Z" transform="translate(-3463.766 -514.387)" fill="#006197"/>
      <path id="Path_29024" data-name="Path 29024" d="M3418.782,573.441h.015a2.525,2.525,0,0,0,2.642-2.82l0,0s.115-18.262,0-19.3a1.639,1.639,0,0,0-2.99-.563c-8.627,11.44-16.373,21.2-21.232,19.918a5.41,5.41,0,0,1-2.173-1.657c-2.908-3.453-5.026-12.847-5.064-25.111.038-12.263,2.262-21.624,5.167-25.073a5.363,5.363,0,0,1,2.175-1.663c4.858-1.277,12.5,8.452,21.126,19.89a1.64,1.64,0,0,0,2.99-.56c.115-1.035,0-19.3,0-19.3l0,0a2.527,2.527,0,0,0-2.642-2.822h-33.333c-15.846,0-28.687,13.264-28.92,29.393h0c0,.046,0,.095,0,.139s0,.093,0,.144h0c.234,16.124,13.075,29.388,28.92,29.388h33.318" transform="translate(-3356.543 -514.376)" fill="#006197"/>
    </g>
    <g id="Group_17673" data-name="Group 17673" transform="translate(3494.983 512.875)">
      <path id="Path_29025" data-name="Path 29025" d="M3716.472,540.67a14.424,14.424,0,0,1-5.419-1.008,13.007,13.007,0,0,1-7.332-7.23,15.53,15.53,0,0,1,0-11.318,13.019,13.019,0,0,1,7.332-7.232,14.467,14.467,0,0,1,5.419-1.006,12.788,12.788,0,0,1,3.283.4,11.6,11.6,0,0,1,2.78,1.128,12.257,12.257,0,0,1,2.3,1.69,14.592,14.592,0,0,1,1.832,2.1l-2.82,1.571a9.332,9.332,0,0,0-3.119-2.8,8.5,8.5,0,0,0-4.252-1.108,10.354,10.354,0,0,0-4.108.808,9.8,9.8,0,0,0-3.285,2.255,10.425,10.425,0,0,0-2.176,3.446,12.724,12.724,0,0,0,0,8.8,10.368,10.368,0,0,0,2.176,3.464,9.775,9.775,0,0,0,3.285,2.257,10.354,10.354,0,0,0,4.108.805,8.578,8.578,0,0,0,4.252-1.09,8.912,8.912,0,0,0,3.119-2.818l2.862,1.571a14.5,14.5,0,0,1-4.17,3.808,11.454,11.454,0,0,1-6.063,1.509" transform="translate(-3702.653 -512.874)" fill="#52575a"/>
      <path id="Path_29026" data-name="Path 29026" d="M3778.35,549.53a7.72,7.72,0,0,0,3.041-.6,5.489,5.489,0,0,0,2.318-1.814v-3.667a5.452,5.452,0,0,0-2.318-1.811,7.723,7.723,0,0,0-3.041-.607,5,5,0,0,0-3.466,1.191,4.191,4.191,0,0,0,0,6.123,5.005,5.005,0,0,0,3.466,1.187m5.359,1.692v-2.215a8.312,8.312,0,0,1-6.447,2.7,7.755,7.755,0,0,1-2.458-.4,6.394,6.394,0,0,1-3.747-3.266,6.118,6.118,0,0,1-.6-2.778,6.074,6.074,0,0,1,2.176-4.834,6.356,6.356,0,0,1,2.175-1.189,8.127,8.127,0,0,1,2.458-.382,9.9,9.9,0,0,1,3.647.642,7.087,7.087,0,0,1,2.8,2.017v-3.506a3.607,3.607,0,0,0-1.392-3.04,5.616,5.616,0,0,0-3.525-1.068,7.937,7.937,0,0,0-5.962,2.7l-1.408-2.1a10.339,10.339,0,0,1,7.773-3.221,11.263,11.263,0,0,1,2.9.364,6.65,6.65,0,0,1,2.4,1.147,5.53,5.53,0,0,1,1.633,2.032,6.922,6.922,0,0,1,.6,3.023v13.375Z" transform="translate(-3743.335 -523.919)" fill="#52575a"/>
      <path id="Path_29027" data-name="Path 29027" d="M3832.79,538.633a7,7,0,0,0,3.424-.889,6.379,6.379,0,0,0,2.416-2.173v-8.823a6.69,6.69,0,0,0-2.416-2.215,6.764,6.764,0,0,0-3.424-.927,5.926,5.926,0,0,0-2.619.565,5.6,5.6,0,0,0-1.972,1.571,7.08,7.08,0,0,0-1.231,2.4,10.243,10.243,0,0,0-.422,3,10.035,10.035,0,0,0,.422,2.981,7.084,7.084,0,0,0,1.231,2.378,5.618,5.618,0,0,0,1.972,1.571,5.926,5.926,0,0,0,2.619.565m5.84,2.215v-2.9a8.5,8.5,0,0,1-2.8,2.438,7.688,7.688,0,0,1-3.769.947,8.481,8.481,0,0,1-3.486-.706,7.82,7.82,0,0,1-2.738-2.012,9.392,9.392,0,0,1-1.793-3.2,13.246,13.246,0,0,1-.645-4.271,13.491,13.491,0,0,1,.625-4.23,9.361,9.361,0,0,1,1.774-3.223,7.934,7.934,0,0,1,2.738-2.056,8.437,8.437,0,0,1,3.525-.724,7.76,7.76,0,0,1,3.687.907,8.371,8.371,0,0,1,2.879,2.517V513.975h3.023v26.873Z" transform="translate(-3775.104 -513.535)" fill="#52575a"/>
      <path id="Path_29028" data-name="Path 29028" d="M3883.359,522.238h3.022V541.7h-3.022Zm1.489-2.782a1.956,1.956,0,0,1-1.408-.585,1.907,1.907,0,0,1-.606-1.43,1.978,1.978,0,0,1,.606-1.449,1.924,1.924,0,0,1,1.408-.6,2.06,2.06,0,0,1,2.054,2.054,1.9,1.9,0,0,1-.6,1.43,2.009,2.009,0,0,1-1.452.585" transform="translate(-3810.764 -514.383)" fill="#52575a"/>
      <path id="Path_29029" data-name="Path 29029" d="M3906.817,513.981h3.023v26.873h-3.023Z" transform="translate(-3825.155 -513.538)" fill="#52575a"/>
      <path id="Path_29030" data-name="Path 29030" d="M3929.488,513.981h3.021v26.873h-3.021Z" transform="translate(-3838.758 -513.538)" fill="#52575a"/>
      <path id="Path_29031" data-name="Path 29031" d="M3957.317,549.53a7.718,7.718,0,0,0,3.042-.6,5.467,5.467,0,0,0,2.317-1.814v-3.667a5.427,5.427,0,0,0-2.317-1.811,7.719,7.719,0,0,0-3.042-.607,4.991,4.991,0,0,0-3.464,1.191,4.187,4.187,0,0,0,0,6.123,5,5,0,0,0,3.464,1.187m5.359,1.692v-2.215a8.309,8.309,0,0,1-6.447,2.7,7.744,7.744,0,0,1-2.456-.4,6.387,6.387,0,0,1-3.749-3.266,6.118,6.118,0,0,1-.6-2.778,6.078,6.078,0,0,1,2.176-4.834,6.4,6.4,0,0,1,2.177-1.189,8.114,8.114,0,0,1,2.456-.382,9.866,9.866,0,0,1,3.646.642,7.068,7.068,0,0,1,2.8,2.017v-3.506a3.605,3.605,0,0,0-1.39-3.04,5.616,5.616,0,0,0-3.526-1.068,7.934,7.934,0,0,0-5.961,2.7l-1.41-2.1a10.348,10.348,0,0,1,7.775-3.221,11.271,11.271,0,0,1,2.9.364,6.678,6.678,0,0,1,2.4,1.147,5.583,5.583,0,0,1,1.63,2.032,6.887,6.887,0,0,1,.606,3.023v13.375Z" transform="translate(-3850.717 -523.919)" fill="#52575a"/>
      <path id="Path_29032" data-name="Path 29032" d="M4012.1,551.728a9.756,9.756,0,0,1-3.969-.786,9.072,9.072,0,0,1-3.061-2.156,9.761,9.761,0,0,1-1.974-3.243,11.387,11.387,0,0,1-.706-4.046,11.221,11.221,0,0,1,.706-4.029,9.761,9.761,0,0,1,1.974-3.223,9.079,9.079,0,0,1,3.061-2.156,9.758,9.758,0,0,1,3.969-.785,8.591,8.591,0,0,1,4.332.966,9.6,9.6,0,0,1,2.8,2.418l-2.013,1.851a6.055,6.055,0,0,0-2.2-1.933,6.164,6.164,0,0,0-2.76-.6,6.616,6.616,0,0,0-2.8.565,6.26,6.26,0,0,0-2.116,1.571,6.977,6.977,0,0,0-1.351,2.376,9.251,9.251,0,0,0-.46,2.983,9.414,9.414,0,0,0,.46,3,6.913,6.913,0,0,0,1.351,2.4,6.258,6.258,0,0,0,2.116,1.573,6.651,6.651,0,0,0,2.8.563,5.907,5.907,0,0,0,4.956-2.537l2.013,1.851a9.616,9.616,0,0,1-2.8,2.42,8.616,8.616,0,0,1-4.332.964" transform="translate(-3882.5 -523.932)" fill="#52575a"/>
      <path id="Path_29033" data-name="Path 29033" d="M3705.18,623.4V597.859h16.73v2.833h-13.553v8.234h13.287v2.833h-13.287V623.4Z" transform="translate(-3704.17 -563.866)" fill="#52575a"/>
      <path id="Path_29034" data-name="Path 29034" d="M3762.432,631.68a7.362,7.362,0,0,0,2.89-.574,5.182,5.182,0,0,0,2.2-1.723V625.9a5.16,5.16,0,0,0-2.2-1.721,7.322,7.322,0,0,0-2.89-.576,4.76,4.76,0,0,0-3.294,1.13,3.753,3.753,0,0,0-1.262,2.93,3.706,3.706,0,0,0,1.262,2.89,4.75,4.75,0,0,0,3.294,1.13m5.092,1.608v-2.107a7.889,7.889,0,0,1-6.127,2.566,7.267,7.267,0,0,1-2.334-.384,6.078,6.078,0,0,1-3.561-3.1,5.826,5.826,0,0,1-.574-2.643,5.765,5.765,0,0,1,2.067-4.594,6.027,6.027,0,0,1,2.067-1.13,7.693,7.693,0,0,1,2.334-.364,9.325,9.325,0,0,1,3.466.613,6.685,6.685,0,0,1,2.661,1.913V620.73a3.436,3.436,0,0,0-1.32-2.893,5.355,5.355,0,0,0-3.351-1.015,7.538,7.538,0,0,0-5.666,2.566l-1.341-1.99a9.826,9.826,0,0,1,7.389-3.065,10.72,10.72,0,0,1,2.755.344,6.442,6.442,0,0,1,2.279,1.092,5.252,5.252,0,0,1,1.551,1.933,6.54,6.54,0,0,1,.576,2.873v12.713Z" transform="translate(-3734.019 -573.752)" fill="#52575a"/>
      <path id="Path_29035" data-name="Path 29035" d="M3805.788,605.736h2.873V624.23h-2.873Zm1.417-2.643a1.868,1.868,0,0,1-1.341-.556,1.823,1.823,0,0,1-.574-1.359,1.892,1.892,0,0,1,.574-1.379,1.842,1.842,0,0,1,1.341-.574,1.954,1.954,0,0,1,1.95,1.953,1.819,1.819,0,0,1-.571,1.359,1.91,1.91,0,0,1-1.379.556" transform="translate(-3764.237 -564.686)" fill="#52575a"/>
      <path id="Path_29036" data-name="Path 29036" d="M3826.6,633.392V614.9h2.871v2.985a9.7,9.7,0,0,1,2.681-2.411,6.553,6.553,0,0,1,3.486-.96v2.952a5.44,5.44,0,0,0-1.149-.117,4.432,4.432,0,0,0-1.4.249,7.326,7.326,0,0,0-1.458.671,8.235,8.235,0,0,0-1.282.938,4.058,4.058,0,0,0-.88,1.092v13.094Z" transform="translate(-3777.023 -573.859)" fill="#52575a"/>
      <path id="Path_29037" data-name="Path 29037" d="M3863.374,633.971l-7.7-18.493h3.1l6.162,15.162,6.127-15.162h3.139l-7.7,18.493Z" transform="translate(-3794.469 -574.438)" fill="#52575a"/>
      <path id="Path_29038" data-name="Path 29038" d="M3908.717,605.736h2.873V624.23h-2.873Zm1.417-2.643a1.87,1.87,0,0,1-1.342-.556,1.823,1.823,0,0,1-.573-1.359,1.891,1.891,0,0,1,.573-1.379,1.844,1.844,0,0,1,1.342-.574,1.959,1.959,0,0,1,1.952,1.953,1.82,1.82,0,0,1-.574,1.359,1.913,1.913,0,0,1-1.378.556" transform="translate(-3825.996 -564.686)" fill="#52575a"/>
      <path id="Path_29039" data-name="Path 29039" d="M3942.033,622.883a6.765,6.765,0,0,0-.362-2.125,6.173,6.173,0,0,0-1.112-1.99,5.794,5.794,0,0,0-1.9-1.474,6,6,0,0,0-2.718-.576,5.569,5.569,0,0,0-2.6.576,6.014,6.014,0,0,0-1.858,1.454,6.47,6.47,0,0,0-1.147,1.97,6.875,6.875,0,0,0-.441,2.164Zm-5.743,10.875a9.919,9.919,0,0,1-3.791-.708,8.656,8.656,0,0,1-2.967-1.992,9.29,9.29,0,0,1-1.955-3.062,10.687,10.687,0,0,1-.706-3.963,10.377,10.377,0,0,1,.688-3.773,9.571,9.571,0,0,1,1.9-3.082,9.032,9.032,0,0,1,2.87-2.067,8.673,8.673,0,0,1,3.658-.766,8.812,8.812,0,0,1,3.753.766,8.186,8.186,0,0,1,2.793,2.107,9.166,9.166,0,0,1,1.746,3.159,12.47,12.47,0,0,1,.591,3.885v.726H3929.9a7.339,7.339,0,0,0,.574,2.471,6.373,6.373,0,0,0,1.359,2.03,6.525,6.525,0,0,0,4.728,1.9,8.1,8.1,0,0,0,3.1-.613,7.846,7.846,0,0,0,2.605-1.723l1.376,1.878a9.371,9.371,0,0,1-3.217,2.1,11.183,11.183,0,0,1-4.134.728" transform="translate(-3837.188 -573.758)" fill="#52575a"/>
      <path id="Path_29040" data-name="Path 29040" d="M3995.81,633.971l-4.826-14.858-4.823,14.858h-2.872l-5.9-18.493h2.988l4.519,14.74,4.863-14.74h2.449l4.863,14.74,4.521-14.74h2.985l-5.9,18.493Z" transform="translate(-3867.5 -574.438)" fill="#52575a"/>
    </g>
  </g>
</svg>
