<svg xmlns="http://www.w3.org/2000/svg" width="304" height="80" viewBox="0 0 304 80">
  <g id="Group_13675" data-name="Group 13675" transform="translate(-438.9 -638.6)">
    <g id="Group_12234" data-name="Group 12234" transform="translate(438.9 638.6)">
      <path id="Path_20712" data-name="Path 20712" d="M458.114,715.113h24.164a1.812,1.812,0,0,0,2.013-1.565v-.783a1.812,1.812,0,0,0-2.013-1.565H458.114a1.812,1.812,0,0,0-2.014,1.565v.783C456.1,714.5,456.976,715.113,458.114,715.113Z" transform="translate(-441.042 -648.07)" fill="#0091b7"/>
      <path id="Path_20713" data-name="Path 20713" d="M456.1,719.748a1.812,1.812,0,0,0,2.014,1.565h24.164a1.812,1.812,0,0,0,2.013-1.565v-.783a1.812,1.812,0,0,0-2.013-1.565H458.114a1.812,1.812,0,0,0-2.014,1.565Z" transform="translate(-441.042 -648.879)" fill="#0091b7"/>
      <path id="Path_20714" data-name="Path 20714" d="M470.681,729.687c5.866,0,10.593-1.3,10.593-3.044V723.6H460v3.043C460.088,728.3,464.815,729.687,470.681,729.687Z" transform="translate(-441.527 -649.687)" fill="#17395a"/>
      <path id="Path_20715" data-name="Path 20715" d="M495.019,658.861l-.525.7h-.963l-.525.609-1.313.522-.088,2.522.963,1.044-.35,3.217.963,3.217.613,2.522.7.522.438.956.788-.348a28.058,28.058,0,0,1-9.1,14.869v-.087l.35-.956-.35-.522-2.889.348-.525-1.13h-2.1l-3.59-1.217-1.4.522-1.751-.348-1.051.348-.35-.348-2.276.348-1.138.522v.957l-.7-.522-1.051-.348-.35.609-2.014-1.13.088-1.391-.875-.783-1.051.087-.963-1.391,1.051-2-1.313-.087-1.488,1.217-1.138.174-1.488-1.565.175-2.87,1.313-1.217,1.663-.174,1.4.435v-.609h1.751l.788.782.263,1.652.963.783.35-.348-.175-1.652.175-1.739.876-.956,1.226-.783.175-1.826,1.051-1.13,1.576-.956.263-1.131.7.522,1.226-.87.35-.87,1.226-.435-1.488-.174-.613-.435.263-.956-1.663.261,2.977-1.652.963-1.3-.263-.783-2.276-.609-1.488-2.435-.35,1.131-.613-1.652-2.276-.174-.525.87.263,2.87-.788,1.043.35.522-.613.435-.525-1.3-.963-1.391-1.839-1.652v-1.217l1.4-.609-1.226-.348,1.488-.348v-1.13l1.313-.348-.175-.956-1.313-.435-.613.783-.175-1.391-.438-.174-1.138.522-.088.957-.613-1.131-1.488.261.35-.522-.963-.348-.35-1.652h-.963l-.35-1.391-.263-2.174-1.663-.174-1.576.956-1.488.261-1.051.957.35.435-.613.87-.788.348-1.488-1.131-.613-1.043V650.6l.613,1.565,1.926.348,1.138.522.875-.174-.525,2,.088,2.782-.438.956v2.087l-.613,2.7-.963,1.478-.788.609-.263,2.783.963,1.826.087,3.565-.438.348.875,1.043,1.138,3.044h.438l-.438-2.435-.788-1.652.175-1.826,1.751,5.565.35,2.348,3.5,3.217.438-.174,1.488.174,1.751,1.739,1.926.435,1.838,2.87,1.926.261.7-.348.875.348h0l-.175,1.478-1.138.174-1.488,1.565.788,1.478,1.313.261,2.276,1.826.438.522c-.876.087-1.839.174-2.8.174a28.059,28.059,0,0,1-18.473-49.217l.175.609.875.261.876-1.3,2.1-.522,1.226.7-.525.957,2.364-.957.35-1.3,1.313-1.652,1.926-.522.525.522,1.138-1.131,1.138.348.7-.522H467.7l.438.782,1.313.522-.175-.783-.525-.783,1.226-.956,3.152,1.652.35-.783,1.4-.174,1.138,1.478,2.014.782-.7,1.044,3.764,2.87,1.051.174v.956l1.313,1.13.7-.783,1.576.956-1.226.261.175.348,1.839,1.3.525,1.391.438,1.131-.438.348,1.926,1.13v2.522l.35.609.7-.261.438,1.3H491.6l.525-.956-.175-3.217.963,1.652-.35.783.7-.435-.35-2.087.963,1.652-.087.87.7-.435V657.9a1.755,1.755,0,0,1,.525.956M452.558,655.3l-.788.087.175.783.525-.261Zm25.827,29.478-.35-.261.087-.087h.35Zm-.35-1.218.263.348h-.175l-.263-.174Zm.087-.435.175.348h-.175l-.263-.087Zm-.525.174-.263-.348h.088l.263.174Zm0-.783.35.261h-.35Zm-.7-.348-.175.087.263.435.263-.174Zm-.525-.261-.35.087.175.261.35.087Zm-2.189-.261-.263.348.963.261.175-.348Zm-5.341.261h.7l.088.261-.525.348Zm1.663-.7.438.435-.963.261.963.348.35.435,1.313-.522.963-.348-.088-.348-1.663-.435Zm-6.3-.435.613-.609,1.4-.522,2.014.348.876.782,1.226.174-.35.522-1.576.348-.875-.435-.963-.7-1.313-.261Zm5.691-33.217-.876.783-.438,1.3-.35.956h-.7l-.7-.261v-.348l.35-.435-.7.174-.263-.609.35-.7.963-.261.088-.522h.963l.175-.348Zm4.2-.7-.876.087-1.138.348-.263.261-1.138-.087-1.051.869-.7,1.653-.35.783.7.869.35-.348h1.4l.525,2.522h1.488l.438.522-.35.348.963.957v.522l1.663,1.478,1.663.261V655.47l-.7-.609.438-1.3-.088-.957.788-.609v-2.174l-.525-.435-1.138-.348-.963-.348-.175-.609-.35-.348.088-.435-.875.174Zm6.391,4.522-.438.522h-.963l-.613.348-.35.609-.087.609.963.174.788-.522.525-.174.525-.783Zm-5.691-5.826.35-.522-.875-.435-.876.435v.957l-.438.087,1.488.609.35-.609,1.05-.348-.087-.348-.438.087Zm22.412,22.174a29.154,29.154,0,1,0-45.263,24.261,4.5,4.5,0,0,1,2.014,3.652v3.913h28.016v-3.391a5.09,5.09,0,0,1,2.276-4.348A29.026,29.026,0,0,0,497.207,667.73Z" transform="translate(-438.9 -638.6)" fill="#17395a" fill-rule="evenodd"/>
    </g>
    <path id="Union_50" data-name="Union 50" d="M24.327,23.724a7.865,7.865,0,0,1-3.562-3.111,10.363,10.363,0,0,1-1.383-5.237c-.024-.986-.041-1.974-.041-2.945s.018-1.959.041-2.968a11.044,11.044,0,0,1,.981-4.45H5.4V10.8H15.618a.852.852,0,0,1,.62.24.862.862,0,0,1,.241.624v2.922a.823.823,0,0,1-.241.585.851.851,0,0,1-.62.238H5.4v8.149a.827.827,0,0,1-.239.616.861.861,0,0,1-.628.24H.869a.844.844,0,0,1-.622-.24A.81.81,0,0,1,0,23.559V1.208A.821.821,0,0,1,.247.591.847.847,0,0,1,.869.347H1.958V.316h24.7A14.609,14.609,0,0,1,29.765,0a12.707,12.707,0,0,1,5.345,1.066,8.305,8.305,0,0,1,3.619,3.181,10.074,10.074,0,0,1,1.383,5.216q.071,1.514.071,2.968c0,.971-.024,1.959-.071,2.945a11.285,11.285,0,0,1-.9,4.337h3.758V1.208a.837.837,0,0,1,.239-.618.859.859,0,0,1,.62-.244H53a10.688,10.688,0,0,1,6.821,1.982,6.829,6.829,0,0,1,2.488,5.685,7.018,7.018,0,0,1-1.209,4.2,7.3,7.3,0,0,1-3.252,2.51l2.832,4.992H66.6V1.208a.8.8,0,0,1,.265-.618.858.858,0,0,1,.6-.244h3.22a1.033,1.033,0,0,1,.779.277,4.431,4.431,0,0,1,.357.417l6.37,11.652L84.637,1.041a1.928,1.928,0,0,1,.326-.417.9.9,0,0,1,.5-.253V.316h17.685l-.022.049a1.852,1.852,0,0,1,.261-.018h4.429a1.255,1.255,0,0,1,.865.277,1.338,1.338,0,0,1,.422.655l8.232,22.107a1.235,1.235,0,0,1,.039.308.729.729,0,0,1-.206.5.682.682,0,0,1-.52.224h-3.6a1.052,1.052,0,0,1-.763-.24,1.243,1.243,0,0,1-.31-.442l-1.487-3.853h-9.763l-1.487,3.853a1.243,1.243,0,0,1-.31.442,1.083,1.083,0,0,1-.765.24h-3.6a.668.668,0,0,1-.516-.224.729.729,0,0,1-.206-.5,1.25,1.25,0,0,1,.031-.308l6.845-18.372H89.829V23.559a.8.8,0,0,1-.247.616.843.843,0,0,1-.62.24h-3.53a.808.808,0,0,1-.589-.24.825.825,0,0,1-.237-.616V9.667l-4.4,8.182a2.187,2.187,0,0,1-.453.552,1.065,1.065,0,0,1-.724.238H77.4a1.065,1.065,0,0,1-.724-.238,2.032,2.032,0,0,1-.453-.552l-4.4-8.182V23.559a.816.816,0,0,1-.826.856h-3.53c-.039,0-.078-.006-.118-.008H62.217c-.037,0-.073.008-.11.008h-3.84a1.238,1.238,0,0,1-.938-.324,2.558,2.558,0,0,1-.445-.6L52.66,15.614H48.468v7.944a.83.83,0,0,1-.243.616.849.849,0,0,1-.62.24h-3.78c-.041,0-.082-.006-.126-.008H33.125a15.089,15.089,0,0,1-3.36.355A13.1,13.1,0,0,1,24.327,23.724Zm3.046-18.75a3.745,3.745,0,0,0-1.639,1.666,6.621,6.621,0,0,0-.675,2.922c-.024.99-.041,1.922-.041,2.8s.018,1.832.041,2.842a5.444,5.444,0,0,0,1.383,3.9,4.614,4.614,0,0,0,3.322,1.216,4.624,4.624,0,0,0,3.3-1.216,5.34,5.34,0,0,0,1.368-3.9c.047-1.01.071-1.959.071-2.842s-.024-1.809-.071-2.8a6.348,6.348,0,0,0-.652-2.922,3.949,3.949,0,0,0-1.646-1.666,5.087,5.087,0,0,0-2.372-.536A5.181,5.181,0,0,0,27.373,4.974ZM102,15.441h7.165l-3.564-9.9ZM48.468,11.246H52.9a4.006,4.006,0,0,0,2.822-.86,3.123,3.123,0,0,0,.914-2.4,3.262,3.262,0,0,0-.9-2.44,3.883,3.883,0,0,0-2.84-.9H48.468Z" transform="translate(625.525 660.106)" fill="#0091b7"/>
    <path id="Path_20748" data-name="Path 20748" d="M8.145-2.455a9.028,9.028,0,0,1-3.74-.687A5.814,5.814,0,0,1,2.087-4.911a4.05,4.05,0,0,1-.858-2.277A.509.509,0,0,1,1.4-7.557a.544.544,0,0,1,.4-.165H3.1a.629.629,0,0,1,.461.153.754.754,0,0,1,.2.356A3.145,3.145,0,0,0,4.405-6a3.607,3.607,0,0,0,1.4.992,5.941,5.941,0,0,0,2.344.394,5.433,5.433,0,0,0,3.241-.776,2.46,2.46,0,0,0,1.037-2.074,1.937,1.937,0,0,0-.551-1.438,4.834,4.834,0,0,0-1.678-.98q-1.127-.433-2.92-.941A16.993,16.993,0,0,1,4.175-12a4.624,4.624,0,0,1-1.832-1.577,4.364,4.364,0,0,1-.6-2.392,4.233,4.233,0,0,1,.743-2.455,5.05,5.05,0,0,1,2.152-1.717,8.176,8.176,0,0,1,3.381-.636,8.359,8.359,0,0,1,2.779.42,5.962,5.962,0,0,1,1.985,1.12,5.131,5.131,0,0,1,1.2,1.5,3.7,3.7,0,0,1,.435,1.565.554.554,0,0,1-.128.343.486.486,0,0,1-.41.165H12.526a.792.792,0,0,1-.371-.1.664.664,0,0,1-.295-.382A2.571,2.571,0,0,0,10.682-17.9a4.571,4.571,0,0,0-2.664-.712,5.113,5.113,0,0,0-2.7.636,2.161,2.161,0,0,0-1.037,1.985,2.142,2.142,0,0,0,.487,1.438A3.971,3.971,0,0,0,6.3-13.549a26.7,26.7,0,0,0,2.741.916A20.472,20.472,0,0,1,12.4-11.45,4.7,4.7,0,0,1,14.332-9.9a4.164,4.164,0,0,1,.628,2.379,4.442,4.442,0,0,1-.845,2.735,5.27,5.27,0,0,1-2.37,1.73A9.836,9.836,0,0,1,8.145-2.455ZM23.054-2.71a.575.575,0,0,1-.423-.165.567.567,0,0,1-.167-.42v-6L16.292-19.681l-.051-.153a.56.56,0,0,1-.026-.178.487.487,0,0,1,.154-.356.493.493,0,0,1,.359-.153h1.332a.745.745,0,0,1,.41.114.632.632,0,0,1,.256.318l5,8.244,5-8.244a1.068,1.068,0,0,1,.295-.318.684.684,0,0,1,.4-.114h1.306a.523.523,0,0,1,.384.153.487.487,0,0,1,.154.356.56.56,0,0,1-.026.178.641.641,0,0,1-.077.153L25-9.3v6a.567.567,0,0,1-.167.42.608.608,0,0,1-.448.165Zm16.369.254a9.028,9.028,0,0,1-3.74-.687,5.814,5.814,0,0,1-2.318-1.768,4.051,4.051,0,0,1-.858-2.277.509.509,0,0,1,.167-.369.544.544,0,0,1,.4-.165h1.306a.629.629,0,0,1,.461.153.754.754,0,0,1,.2.356A3.145,3.145,0,0,0,35.683-6a3.607,3.607,0,0,0,1.4.992,5.941,5.941,0,0,0,2.344.394,5.433,5.433,0,0,0,3.241-.776A2.46,2.46,0,0,0,43.7-7.468a1.937,1.937,0,0,0-.551-1.438,4.834,4.834,0,0,0-1.678-.98q-1.127-.433-2.92-.941a16.993,16.993,0,0,1-3.1-1.17,4.624,4.624,0,0,1-1.832-1.577,4.364,4.364,0,0,1-.6-2.392,4.233,4.233,0,0,1,.743-2.455,5.05,5.05,0,0,1,2.152-1.717,8.176,8.176,0,0,1,3.381-.636,8.358,8.358,0,0,1,2.779.42,5.962,5.962,0,0,1,1.985,1.12,5.131,5.131,0,0,1,1.2,1.5,3.7,3.7,0,0,1,.435,1.565.554.554,0,0,1-.128.343.486.486,0,0,1-.41.165H43.8a.792.792,0,0,1-.371-.1.664.664,0,0,1-.295-.382A2.571,2.571,0,0,0,41.96-17.9a4.572,4.572,0,0,0-2.664-.712,5.113,5.113,0,0,0-2.7.636,2.161,2.161,0,0,0-1.037,1.985,2.142,2.142,0,0,0,.487,1.438,3.971,3.971,0,0,0,1.537,1.005,26.7,26.7,0,0,0,2.741.916,20.471,20.471,0,0,1,3.356,1.183A4.7,4.7,0,0,1,45.61-9.9a4.164,4.164,0,0,1,.628,2.379,4.442,4.442,0,0,1-.845,2.735,5.27,5.27,0,0,1-2.37,1.73A9.836,9.836,0,0,1,39.424-2.455ZM53.9-2.71a.575.575,0,0,1-.423-.165.567.567,0,0,1-.166-.42V-18.256H48.389a.575.575,0,0,1-.423-.165.567.567,0,0,1-.167-.42V-19.91a.6.6,0,0,1,.167-.445.575.575,0,0,1,.423-.165H60.737a.608.608,0,0,1,.448.165.6.6,0,0,1,.167.445v1.069a.567.567,0,0,1-.167.42.608.608,0,0,1-.448.165H55.844V-3.295a.567.567,0,0,1-.167.42.608.608,0,0,1-.448.165Zm10.913,0a.565.565,0,0,1-.435-.165.592.592,0,0,1-.154-.42V-19.91a.628.628,0,0,1,.154-.445.565.565,0,0,1,.435-.165h10.58a.565.565,0,0,1,.435.165.628.628,0,0,1,.154.445v.967a.583.583,0,0,1-.154.433.591.591,0,0,1-.435.153H66.68v5.572h8.146a.565.565,0,0,1,.435.165.628.628,0,0,1,.154.445v.941a.592.592,0,0,1-.154.42.565.565,0,0,1-.435.165H66.68v5.776h8.915a.591.591,0,0,1,.435.153.583.583,0,0,1,.154.433v.992a.592.592,0,0,1-.154.42.565.565,0,0,1-.435.165Zm15.524,0a.575.575,0,0,1-.423-.165.567.567,0,0,1-.167-.42V-19.91a.6.6,0,0,1,.167-.445.575.575,0,0,1,.423-.165h1.281a.629.629,0,0,1,.461.153,1.093,1.093,0,0,1,.2.254L87.686-9.834l5.456-10.279a1.222,1.222,0,0,1,.192-.254.584.584,0,0,1,.448-.153h1.255a.608.608,0,0,1,.448.165.6.6,0,0,1,.166.445V-3.295a.567.567,0,0,1-.166.42.608.608,0,0,1-.448.165H93.782a.575.575,0,0,1-.423-.165.567.567,0,0,1-.167-.42V-15.813L88.915-7.519a.845.845,0,0,1-.307.394.888.888,0,0,1-.512.14H87.3a.817.817,0,0,1-.512-.14,1.138,1.138,0,0,1-.307-.394l-4.3-8.295V-3.295a.567.567,0,0,1-.167.42.575.575,0,0,1-.423.165Zm25.514.254a9.028,9.028,0,0,1-3.74-.687,5.814,5.814,0,0,1-2.318-1.768,4.05,4.05,0,0,1-.858-2.277.509.509,0,0,1,.167-.369.544.544,0,0,1,.4-.165H100.8a.629.629,0,0,1,.461.153.754.754,0,0,1,.2.356A3.145,3.145,0,0,0,102.108-6a3.607,3.607,0,0,0,1.4.992,5.941,5.941,0,0,0,2.344.394,5.433,5.433,0,0,0,3.241-.776,2.46,2.46,0,0,0,1.037-2.074,1.936,1.936,0,0,0-.551-1.438,4.834,4.834,0,0,0-1.678-.98q-1.127-.433-2.92-.941a16.993,16.993,0,0,1-3.1-1.17,4.624,4.624,0,0,1-1.832-1.577,4.364,4.364,0,0,1-.6-2.392,4.233,4.233,0,0,1,.743-2.455,5.05,5.05,0,0,1,2.152-1.717,8.176,8.176,0,0,1,3.381-.636,8.359,8.359,0,0,1,2.779.42,5.962,5.962,0,0,1,1.985,1.12,5.131,5.131,0,0,1,1.2,1.5,3.7,3.7,0,0,1,.435,1.565.554.554,0,0,1-.128.343.486.486,0,0,1-.41.165h-1.358a.792.792,0,0,1-.371-.1.664.664,0,0,1-.295-.382,2.571,2.571,0,0,0-1.178-1.756,4.571,4.571,0,0,0-2.664-.712,5.113,5.113,0,0,0-2.7.636,2.161,2.161,0,0,0-1.037,1.985,2.142,2.142,0,0,0,.487,1.438A3.971,3.971,0,0,0,104-13.549a26.7,26.7,0,0,0,2.741.916A20.472,20.472,0,0,1,110.1-11.45,4.7,4.7,0,0,1,112.034-9.9a4.164,4.164,0,0,1,.628,2.379,4.442,4.442,0,0,1-.845,2.735,5.27,5.27,0,0,1-2.37,1.73A9.836,9.836,0,0,1,105.848-2.455Z" transform="translate(508.712 713.404)" fill="#17395a"/>
    <path id="Path_20742" data-name="Path 20742" d="M8.866-3.61a.847.847,0,0,1-.623-.241A.835.835,0,0,1,8-4.47V-22.9H1.7a.8.8,0,0,1-.588-.241.793.793,0,0,1-.242-.585v-3.094a.835.835,0,0,1,.242-.619.8.8,0,0,1,.588-.241H19.84a.847.847,0,0,1,.623.241.835.835,0,0,1,.242.619v3.094a.793.793,0,0,1-.242.585.847.847,0,0,1-.623.241H13.574V-4.47a.835.835,0,0,1-.242.619.847.847,0,0,1-.623.241Zm16.028,0a.847.847,0,0,1-.623-.241.835.835,0,0,1-.242-.619V-26.818a.835.835,0,0,1,.242-.619.847.847,0,0,1,.623-.241H40.575a.847.847,0,0,1,.623.241.835.835,0,0,1,.242.619v2.751a.793.793,0,0,1-.242.585.847.847,0,0,1-.623.241H29.36v5.4H39.814a.847.847,0,0,1,.623.241.835.835,0,0,1,.242.619v2.544a.793.793,0,0,1-.242.585.847.847,0,0,1-.623.241H29.36v5.57H40.852a.847.847,0,0,1,.623.241.835.835,0,0,1,.242.619V-4.47a.835.835,0,0,1-.242.619.847.847,0,0,1-.623.241Zm21.809,0a.847.847,0,0,1-.623-.241.835.835,0,0,1-.242-.619V-26.818a.835.835,0,0,1,.242-.619.847.847,0,0,1,.623-.241h9.173A10.69,10.69,0,0,1,62.7-25.7a6.835,6.835,0,0,1,2.492,5.69,7,7,0,0,1-1.212,4.195,7.254,7.254,0,0,1-3.254,2.51L65.6-4.71a.851.851,0,0,1,.1.378.715.715,0,0,1-.208.5.679.679,0,0,1-.519.223H61.138a1.234,1.234,0,0,1-.935-.327,2.61,2.61,0,0,1-.45-.6L55.53-12.412H51.341V-4.47a.835.835,0,0,1-.242.619.847.847,0,0,1-.623.241Zm4.639-13.169h4.431a4.007,4.007,0,0,0,2.821-.86,3.137,3.137,0,0,0,.917-2.407,3.286,3.286,0,0,0-.9-2.441,3.9,3.9,0,0,0-2.839-.894H51.341ZM70.311-3.61a.847.847,0,0,1-.623-.241.835.835,0,0,1-.242-.619V-26.818a.835.835,0,0,1,.242-.619.847.847,0,0,1,.623-.241h9.173A10.69,10.69,0,0,1,86.3-25.7a6.835,6.835,0,0,1,2.492,5.69,7,7,0,0,1-1.212,4.195,7.254,7.254,0,0,1-3.254,2.51l4.881,8.6a.851.851,0,0,1,.1.378.715.715,0,0,1-.208.5.679.679,0,0,1-.519.223H84.746a1.234,1.234,0,0,1-.935-.327,2.61,2.61,0,0,1-.45-.6l-4.223-7.874H74.95V-4.47a.835.835,0,0,1-.242.619.847.847,0,0,1-.623.241ZM74.95-16.779h4.431a4.007,4.007,0,0,0,2.821-.86,3.137,3.137,0,0,0,.917-2.407,3.286,3.286,0,0,0-.9-2.441,3.9,3.9,0,0,0-2.839-.894H74.95ZM91.635-3.61a.679.679,0,0,1-.519-.223.715.715,0,0,1-.208-.5,1.27,1.27,0,0,1,.035-.309L99.182-26.75A1.328,1.328,0,0,1,99.6-27.4a1.263,1.263,0,0,1,.865-.275h4.431a1.263,1.263,0,0,1,.865.275,1.328,1.328,0,0,1,.415.653l8.239,22.108a1.271,1.271,0,0,1,.035.309.715.715,0,0,1-.208.5.679.679,0,0,1-.519.223h-3.6a1.045,1.045,0,0,1-.762-.241,1.213,1.213,0,0,1-.312-.447l-1.489-3.851H97.8L96.308-4.3A1.212,1.212,0,0,1,96-3.851a1.045,1.045,0,0,1-.762.241Zm7.443-8.974h7.166l-3.566-9.9Z" transform="translate(507.995 688.132)" fill="#17395a"/>
  </g>
</svg>
